<svg xmlns="http://www.w3.org/2000/svg" viewBox="0 0 160 120"><line x1="28.739279879335655" y1="21.91901181688433" x2="75.56214947008625" y2="51.02511994086443" stroke="#1A1A1A" stroke-width="1.8" stroke-linecap="round" opacity="0.85"></line><line x1="30.73855368545602" y1="48.78837502157276" x2="73.29630582314985" y2="56.839841642217536" stroke="#1A1A1A" stroke-width="1.8" stroke-linecap="round" opacity="0.85"></line><line x1="30.73855368545602" y1="71.21162497842724" x2="73.29630582314985" y2="63.160158357782464" stroke="#1A1A1A" stroke-width="1.8" stroke-linecap="round" opacity="0.85"></line><line x1="28.739279879335655" y1="98.08098818311568" x2="75.56214947008625" y2="68.97488005913557" stroke="#1A1A1A" stroke-width="1.8" stroke-linecap="round" opacity="0.85"></line><line x1="107" y1="60" x2="128" y2="60" stroke="#C9A84C" stroke-width="2.2" stroke-linecap="round"></line><g transform="translate(16 14)"><g><rect x="7.5" y="-1.5" width="3" height="3" transform="rotate(0 9 0)" fill="#1A1A1A"></rect><rect x="4.8639610306789285" y="4.863961030678928" width="3" height="3" transform="rotate(45 6.3639610306789285 6.363961030678928)" fill="#1A1A1A"></rect><rect x="-1.4999999999999996" y="7.5" width="3" height="3" transform="rotate(90 5.51091059616309e-16 9)" fill="#1A1A1A"></rect><rect x="-7.863961030678928" y="4.8639610306789285" width="3" height="3" transform="rotate(135 -6.363961030678928 6.3639610306789285)" fill="#1A1A1A"></rect><rect x="-10.5" y="-1.499999999999999" width="3" height="3" transform="rotate(180 -9 1.102182119232618e-15)" fill="#1A1A1A"></rect><rect x="-7.863961030678929" y="-7.863961030678928" width="3" height="3" transform="rotate(225 -6.363961030678929 -6.363961030678928)" fill="#1A1A1A"></rect><rect x="-1.5000000000000016" y="-10.5" width="3" height="3" transform="rotate(270 -1.6532731788489267e-15 -9)" fill="#1A1A1A"></rect><rect x="4.863961030678926" y="-7.863961030678929" width="3" height="3" transform="rotate(315 6.363961030678926 -6.363961030678929)" fill="#1A1A1A"></rect><circle cx="0" cy="0" r="6.5" fill="#1A1A1A"></circle><circle cx="0" cy="0" r="2.5" fill="#fff"></circle></g></g><g transform="translate(16 46)"><text x="0" y="5" text-anchor="middle" font-family="&#39;Cormorant Garamond&#39;, Georgia, serif" font-size="18" font-weight="600" fill="#1A1A1A">Σ</text></g><g transform="translate(16 74)"><g stroke="#1A1A1A" stroke-width="2" fill="none" stroke-linecap="round" stroke-linejoin="round">
  <polyline points="-9,-6 -3,0 -9,6"></polyline>
  <polyline points="9,-6 3,0 9,6"></polyline>
  <line x1="-1" y1="6" x2="1" y2="-6" stroke-width="1.5" opacity="0.5"></line>
</g></g><g transform="translate(16 106)"><path d="M -10 0 L -5 0 L -3 -7 L 0 6 L 3 -4 L 5 0 L 10 0" fill="none" stroke="#1A1A1A" stroke-width="2" stroke-linecap="round" stroke-linejoin="round"></path></g><circle cx="90" cy="60" r="15" fill="none" stroke="#C9A84C" stroke-width="2"></circle>
    <circle cx="90" cy="60" r="10" fill="none" stroke="#A8862B" stroke-width="0.8" opacity="0.6"></circle>
    <circle cx="90" cy="60" r="3" fill="#C9A84C"></circle><g transform="translate(146 60)"><g>
    <circle cx="0" cy="-2" r="14" fill="#C9A84C" opacity="0.12"></circle>
    <circle cx="0" cy="-2" r="11" fill="#C9A84C" opacity="0.18"></circle>
    <path d="M 0 -12 C -7 -12, -10 -7, -10 -3 C -10 1, -7 4, -6 7 L 6 7 C 7 4, 10 1, 10 -3 C 10 -7, 7 -12, 0 -12 Z" fill="#C9A84C" fill-opacity="0.15" stroke="#1A1A1A" stroke-width="1.6" stroke-linejoin="round"></path>
    <g stroke="#A8862B" stroke-width="0.7" opacity="0.85">
      <line x1="-5" y1="-7" x2="-2" y2="-2"></line>
      <line x1="-5" y1="-7" x2="2" y2="-2"></line>
      <line x1="5" y1="-7" x2="-2" y2="-2"></line>
      <line x1="5" y1="-7" x2="2" y2="-2"></line>
      <line x1="0" y1="-8" x2="-2" y2="-2"></line>
      <line x1="0" y1="-8" x2="2" y2="-2"></line>
      <line x1="-2" y1="-2" x2="0" y2="3"></line>
      <line x1="2" y1="-2" x2="0" y2="3"></line>
    </g>
    <circle cx="-5" cy="-7" r="1.5" fill="#C9A84C" stroke="#1A1A1A" stroke-width="0.5"></circle>
    <circle cx="0" cy="-8" r="1.5" fill="#C9A84C" stroke="#1A1A1A" stroke-width="0.5"></circle>
    <circle cx="5" cy="-7" r="1.5" fill="#C9A84C" stroke="#1A1A1A" stroke-width="0.5"></circle>
    <circle cx="-2" cy="-2" r="1.7" fill="#C9A84C" stroke="#1A1A1A" stroke-width="0.5"></circle>
    <circle cx="2" cy="-2" r="1.7" fill="#C9A84C" stroke="#1A1A1A" stroke-width="0.5"></circle>
    <circle cx="0" cy="3" r="1.8" fill="#C9A84C" stroke="#1A1A1A" stroke-width="0.5"></circle>
    <line x1="-4" y1="8.5" x2="4" y2="8.5" stroke="#1A1A1A" stroke-width="1.5" stroke-linecap="round"></line>
    <line x1="-4" y1="10.2" x2="4" y2="10.2" stroke="#1A1A1A" stroke-width="1.5" stroke-linecap="round"></line>
    <line x1="-3" y1="11.9" x2="3" y2="11.9" stroke="#1A1A1A" stroke-width="1.5" stroke-linecap="round"></line>
  </g></g></svg>